<svg width="614" height="384" viewBox="0 0 614 384" fill="none" xmlns="http://www.w3.org/2000/svg">
<rect x="34.5" y="64.5" width="535" height="319" rx="69.5" stroke="#FBA518"/>
<circle cx="565" cy="341.937" r="24" fill="#1E90FF" fill-opacity="0.4"/>
<path d="M30.3763 115.232L25.9356 127.443C25.8269 127.736 25.631 127.989 25.3744 128.168C25.1178 128.346 24.8127 128.442 24.5001 128.442C24.1875 128.442 23.8824 128.346 23.6258 128.168C23.3692 127.989 23.1733 127.736 23.0645 127.443L18.6239 115.232C18.5464 115.021 18.4241 114.83 18.2654 114.671C18.1068 114.513 17.9157 114.39 17.7052 114.313L5.49345 109.872C5.20041 109.763 4.94767 109.568 4.7692 109.311C4.59072 109.054 4.49506 108.749 4.49506 108.437C4.49506 108.124 4.59072 107.819 4.7692 107.562C4.94767 107.306 5.20041 107.11 5.49345 107.001L17.7052 102.561C17.9157 102.483 18.1068 102.361 18.2654 102.202C18.4241 102.043 18.5464 101.852 18.6239 101.642L23.0645 89.43C23.1733 89.137 23.3692 88.8843 23.6258 88.7058C23.8824 88.5273 24.1875 88.4316 24.5001 88.4316C24.8127 88.4316 25.1178 88.5273 25.3744 88.7058C25.631 88.8843 25.8269 89.137 25.9356 89.43L30.3763 101.642C30.4538 101.852 30.5761 102.043 30.7348 102.202C30.8934 102.361 31.0845 102.483 31.295 102.561L43.5067 107.001C43.7998 107.11 44.0525 107.306 44.231 107.562C44.4095 107.819 44.5051 108.124 44.5051 108.437C44.5051 108.749 44.4095 109.054 44.231 109.311C44.0525 109.568 43.7998 109.763 43.5067 109.872L31.295 114.313C31.0845 114.39 30.8934 114.513 30.7348 114.671C30.5761 114.83 30.4538 115.021 30.3763 115.232V115.232Z" stroke="#FFC27A" stroke-width="3.0625" stroke-linecap="round" stroke-linejoin="round"/>
<path d="M610.639 62.3151C587.288 85.3355 542.996 120.062 552.632 74.8046C564.678 18.2329 519.326 74.3974 499.123 99.098C500.353 97.6514 455.872 154.058 487.178 59.019" stroke="#FFC27A" stroke-width="6" stroke-linecap="round" stroke-linejoin="round"/>
</svg>
